<svg xmlns="http://www.w3.org/2000/svg" width="31" height="44" viewBox="0 0 31 44">
  <path fill="#7e6b5d" d="M958.5,4691.97a15.659,15.659,0,0,0-15.5,15.81,16.93,16.93,0,0,0,3.1,9.49l11.235,18.01a1.4,1.4,0,0,0,.779.63,1.315,1.315,0,0,0,.39.06,0.914,0.914,0,0,0,.233-0.03l0.161-.03a1.413,1.413,0,0,0,.761-0.61l11.474-18.35h0s0,0,.006-0.01h0a15.932,15.932,0,0,0,2.868-9.16A15.659,15.659,0,0,0,958.5,4691.97Zm11.154,22.23h0l-0.795,1.27L958.5,4732.03l-10.133-16.24-0.029-.05-0.029-.04a14.341,14.341,0,0,1-2.616-7.92,12.807,12.807,0,1,1,25.608,0A13.206,13.206,0,0,1,969.654,4714.2Zm-11.15-13.26a6.876,6.876,0,1,0,6.739,6.87A6.812,6.812,0,0,0,958.5,4700.94Zm0,10.98a4.106,4.106,0,1,1,4.024-4.11A4.067,4.067,0,0,1,958.5,4711.92Z" transform="translate(-943 -4691.97)"/>
</svg>
